<svg width="200" height="120" viewBox="0 0 200 120" xmlns="http://www.w3.org/2000/svg">
  <defs>
    <linearGradient id="partnerGrad" x1="0%" y1="0%" x2="100%" y2="100%">
      <stop offset="0%" style="stop-color:#6366f1;stop-opacity:1" />
      <stop offset="50%" style="stop-color:#3b82f6;stop-opacity:1" />
      <stop offset="100%" style="stop-color:#06b6d4;stop-opacity:1" />
    </linearGradient>
  </defs>
  <rect width="200" height="120" fill="url(#partnerGrad)" rx="4"/>
  <!-- Shield icon -->
  <path d="M100 25 L110 30 L110 45 Q110 55 100 60 Q90 55 90 45 L90 30 Z" fill="white" fill-opacity="0.3" stroke="white" stroke-width="1.5" stroke-opacity="0.6"/>
  <!-- Partner logos (rectangles representing logos) -->
  <g opacity="0.8">
    <rect x="30" y="50" width="25" height="15" fill="white" fill-opacity="0.4" rx="2"/>
    <rect x="60" y="50" width="25" height="15" fill="white" fill-opacity="0.4" rx="2"/>
    <rect x="90" y="50" width="25" height="15" fill="white" fill-opacity="0.4" rx="2"/>
    <rect x="120" y="50" width="25" height="15" fill="white" fill-opacity="0.4" rx="2"/>
    <rect x="150" y="50" width="25" height="15" fill="white" fill-opacity="0.4" rx="2"/>
  </g>
  <!-- Star rating -->
  <g fill="white" fill-opacity="0.9">
    <path d="M85 85 L87 90 L92 90 L88 93 L90 98 L85 95 L80 98 L82 93 L78 90 L83 90 Z" />
    <path d="M95 85 L97 90 L102 90 L98 93 L100 98 L95 95 L90 98 L92 93 L88 90 L93 90 Z" />
    <path d="M105 85 L107 90 L112 90 L108 93 L110 98 L105 95 L100 98 L102 93 L98 90 L103 90 Z" />
    <path d="M115 85 L117 90 L122 90 L118 93 L120 98 L115 95 L110 98 L112 93 L108 90 L113 90 Z" />
    <path d="M125 85 L127 90 L132 90 L128 93 L130 98 L125 95 L120 98 L122 93 L118 90 L123 90 Z" />
  </g>
</svg>

