<svg width="200" height="120" viewBox="0 0 200 120" xmlns="http://www.w3.org/2000/svg">
  <defs>
    <linearGradient id="productGrad" x1="0%" y1="0%" x2="100%" y2="100%">
      <stop offset="0%" style="stop-color:#f59e0b;stop-opacity:1" />
      <stop offset="50%" style="stop-color:#f97316;stop-opacity:1" />
      <stop offset="100%" style="stop-color:#ef4444;stop-opacity:1" />
    </linearGradient>
  </defs>
  <rect width="200" height="120" fill="url(#productGrad)" rx="4"/>
  <!-- Product cards -->
  <g opacity="0.9">
    <rect x="20" y="30" width="35" height="50" fill="white" fill-opacity="0.3" rx="2"/>
    <rect x="25" y="35" width="25" height="30" fill="white" fill-opacity="0.5" rx="1"/>
    <rect x="25" y="68" width="20" height="3" fill="white" fill-opacity="0.7" rx="1"/>
    
    <rect x="60" y="30" width="35" height="50" fill="white" fill-opacity="0.3" rx="2"/>
    <rect x="65" y="35" width="25" height="30" fill="white" fill-opacity="0.5" rx="1"/>
    <rect x="65" y="68" width="20" height="3" fill="white" fill-opacity="0.7" rx="1"/>
    
    <rect x="100" y="30" width="35" height="50" fill="white" fill-opacity="0.3" rx="2"/>
    <rect x="105" y="35" width="25" height="30" fill="white" fill-opacity="0.5" rx="1"/>
    <rect x="105" y="68" width="20" height="3" fill="white" fill-opacity="0.7" rx="1"/>
    
    <rect x="140" y="30" width="35" height="50" fill="white" fill-opacity="0.3" rx="2"/>
    <rect x="145" y="35" width="25" height="30" fill="white" fill-opacity="0.5" rx="1"/>
    <rect x="145" y="68" width="20" height="3" fill="white" fill-opacity="0.7" rx="1"/>
  </g>
  <!-- Scroll indicator -->
  <rect x="80" y="95" width="40" height="3" fill="white" fill-opacity="0.6" rx="1.5"/>
  <!-- Title -->
  <rect x="20" y="10" width="80" height="4" fill="white" fill-opacity="0.9" rx="2"/>
</svg>

